<svg width="900" height="540" viewBox="0 0 900 540" fill="none" xmlns="http://www.w3.org/2000/svg">
  <rect width="900" height="540" rx="32" fill="#0f172a" />
  <rect x="56" y="56" width="788" height="340" rx="24" fill="#1e293b" />
  <rect x="72" y="420" width="336" height="28" rx="14" fill="#22c55e" />
  <rect x="430" y="420" width="268" height="28" rx="14" fill="#f97316" />
  <path d="M242 214C266 214 286 234 286 258C286 282 266 302 242 302C218 302 198 282 198 258C198 234 218 214 242 214Z" fill="#f8fafc" opacity="0.9" />
  <path d="M224 260L264 252L248 292" stroke="#0f172a" stroke-width="16" stroke-linecap="round" stroke-linejoin="round" />
  <path d="M578 188H628C644 188 656 200 656 216V284C656 300 644 312 628 312H578C562 312 550 300 550 284V216C550 200 562 188 578 188Z" fill="#38bdf8" />
  <text x="60" y="340" fill="#e2e8f0" font-family="Inter, sans-serif" font-size="32" font-weight="700">Test Project</text>
</svg>
