<svg width="900" height="540" viewBox="0 0 900 540" fill="none" xmlns="http://www.w3.org/2000/svg">
  <rect width="900" height="540" rx="32" fill="#0f172a" />
  <rect x="48" y="48" width="804" height="356" rx="24" fill="#1e293b" />
  <rect x="72" y="420" width="240" height="30" rx="12" fill="#3b82f6" />
  <rect x="336" y="420" width="360" height="30" rx="12" fill="#facc15" />
  <circle cx="180" cy="250" r="60" fill="#f8fafc" opacity="0.9" />
  <path d="M158 242L198 239L182 278" stroke="#0f172a" stroke-width="16" stroke-linecap="round" stroke-linejoin="round" />
  <path d="M362 166C392 166 416 190 416 220C416 250 392 274 362 274C332 274 308 250 308 220C308 190 332 166 362 166Z" fill="#38bdf8" />
  <path d="M364 184V238" stroke="#0f172a" stroke-width="12" stroke-linecap="round" />
  <path d="M344 208H384" stroke="#0f172a" stroke-width="12" stroke-linecap="round" />
  <text x="60" y="340" fill="#e2e8f0" font-family="Inter, sans-serif" font-size="32" font-weight="700">Weather Dashboard</text>
</svg>
